<svg width="288" height="288" viewBox="0 0 288 288" fill="none" xmlns="http://www.w3.org/2000/svg" xmlns:xlink="http://www.w3.org/1999/xlink">
<rect width="288" height="288" fill="url(#pattern0_932_10)"/>
<rect width="288" height="288" fill="url(#paint0_linear_932_10)" fill-opacity="0.2"/>
<path d="M4 68V56H14V58M4 68V70H14V58M4 68L14 58" stroke="black"/>
<path d="M22 70H27M32 70H27M27 70V56L23 60" stroke="black"/>
<path d="M40 56H50V60L40 66V70H50" stroke="black"/>
<path d="M58 56H68V61L66 63M66 63L68 65V70H58M66 63H59" stroke="black"/>
<path d="M84 70V56L76 63H86" stroke="black"/>
<path d="M104 56H94V62H101L104 66L101 70H94" stroke="black"/>
<path d="M119 56H114L112 59V66M112 66L115 70H119L122 66L119 62H115L112 66Z" stroke="black"/>
<path d="M169 70H174L176 67V60M176 60L173 56H169L166 60L169 64H173L176 60Z" stroke="black"/>
<path d="M130 56H140V59L135 64V70" stroke="black"/>
<path d="M148 56H158V60L148 66V70H158V66L148 60V56Z" stroke="black"/>
<path d="M27 48V38M26 52C27.3333 52 28 52 28 52V50H26V52Z" stroke="black"/>
<path d="M56 48H70M56 42H70M60 52V38M66 38V52" stroke="black"/>
<path d="M188 67V65H190V67H188Z" stroke="black"/>
<path d="M208 68H206V66H208V68ZM208 68V70H206M206 58V60H208V58H206Z" stroke="black"/>
<path d="M226 50H224V48H226V50ZM226 50V52H224" stroke="black"/>
<path d="M5 77L7 75H12L14 77V86L12 88L11 87M11 87L10 88H7L5 86V82L7 80H9L11 82M11 87V82M11 82V79" stroke="black"/>
<path d="M22 88L27 74L32 88M24 83H30" stroke="black"/>
<path d="M48 81L50 83V86L48 88H40V81M48 81L50 79V76L48 74H40V81M48 81H40" stroke="black"/>
<path d="M68 76L66 74H60L58 76V86L60 88H66L68 86" stroke="black"/>
<path d="M76 88V74H82L86 78V84L82 88H76Z" stroke="black"/>
<path d="M104 74H94V81M94 81V88H104M94 81H104" stroke="black"/>
<path d="M122 74H112V81M112 88V81M112 81H122" stroke="black"/>
<path d="M140 74H134L130 78V86L132 88C134 88 138 88 138 88L140 86V81H135V83" stroke="black"/>
<path d="M148 88V81M148 74V81M148 81H158M158 74V88" stroke="black"/>
<path d="M166 74H171M176 74H171M171 74V88M166 88H176" stroke="black"/>
<path d="M184 85L187 88H191L194 85V74" stroke="black"/>
<path d="M202 74V81M202 88V81M202 81H206M206 81L212 74M206 81L212 88" stroke="black"/>
<path d="M220 74V88H230" stroke="black"/>
<path d="M238 88V74L243 81L248 74V88" stroke="black"/>
<path d="M256 88V74L266 88V74" stroke="black"/>
<path d="M277 88L274 85V77L277 74H281L284 77V85L281 88H277Z" stroke="black"/>
<path d="M4 106L4 99M4 99L4 92H12L14 94V97L12 99H4Z" stroke="black"/>
<path d="M27 101L32 106M22 106V97L27 92H32V101L27 106H22Z" stroke="black"/>
<path d="M40 106V99M40 99V92H48L50 94V97L48 99H44M40 99H44M44 99L50 106" stroke="black"/>
<path d="M58 104V106H66L68 104V101L66 99H60L58 97V94L60 92H68V94" stroke="black"/>
<path d="M81 92H76V94M81 92H86V94M81 92V106" stroke="black"/>
<path d="M94 92V103L97 106H101L104 103V92" stroke="black"/>
<path d="M130 92V103L132 106L135 103M135 103L138 106L140 103V92M135 103V94" stroke="black"/>
<path d="M148 92L158 106M158 92L148 106" stroke="black"/>
<path d="M166 92L171 99M171 99V106M171 99L176 92" stroke="black"/>
<path d="M184 94V92H194L184 106H194V104" stroke="black"/>
<path d="M112 92V96L117 106L122 96V92" stroke="black"/>
<path d="M210 92H207M210 106H207M207 92H204V106H207M207 92V106" stroke="black"/>
<path d="M240 92H243M240 106H243M243 92H246V106H243M243 92V106" stroke="black"/>
<path d="M219 93L231 105" stroke="black"/>
<path d="M285 39L273 51" stroke="black"/>
<path d="M257 96L261 92L265 96" stroke="black"/>
<path d="M274 105H284" stroke="black"/>
<path d="M43 40H42V38H44V40H43ZM43 40V43M47 40H46V38H48V40H47ZM47 40V43" stroke="black"/>
<path d="M135 40H134V38H136V40H135ZM135 40V43" stroke="black"/>
<path d="M81 38V41M81 41H86M81 41H76V45H86V49H81M76 49H81M81 52V49" stroke="black"/>
<path d="M104 38L94 52M94 38V41H97V38H94ZM104 52V49H101V52H104Z" stroke="black"/>
<path d="M122 52L112 42V40L114 38H116L118 40V42L112 47V50L114 52H117L122 47V45" stroke="black"/>
<path d="M155 52L152 49V41L155 38" stroke="black"/>
<path d="M170 52L173 49V41L170 38" stroke="black"/>
<path d="M189 50V40M185 42L193 48M193 42L185 48" stroke="black"/>
<path d="M202 45H212M207 50V40" stroke="black"/>
<path d="M260 51V49H262V51H260Z" stroke="black"/>
<path d="M278 70V68H280V70H278Z" stroke="black"/>
<path d="M171 113V111H173V113H171Z" stroke="black"/>
<path d="M188 113V111H190V113H188Z" stroke="black"/>
<path d="M238 45H249" stroke="black"/>
<path d="M230 70L220 63L230 56" stroke="black"/>
<path d="M256 70L266 63L256 56" stroke="black"/>
<path d="M238 66H248M238 60H248" stroke="black"/>
<path d="M274 58L277 56H281L284 58V61L279 64V67" stroke="black"/>
<path d="M4 110L7 113" stroke="black"/>
<path d="M225 128V142" stroke="black"/>
<path d="M210 128H206V133L204 135L206 137V142H210" stroke="black"/>
<path d="M240 142H244V137L246 135L244 133V128H240" stroke="black"/>
<path d="M2 164L16 178M2 178L16 164" stroke="black"/>
<path d="M22 166L32 176M32 166L22 176" stroke="black"/>
<path d="M41 167L49 175M49 167L41 175" stroke="black"/>
<path d="M60 168L66 174M66 168L60 174" stroke="black"/>
<path d="M78 169L82 173M82 169L78 173" stroke="black"/>
<path d="M99 170L101 172M101 170L99 172" stroke="black"/>
<path d="M20 160L34 146M27 160H20V153M34 153V146H27M20 153V146H27M20 153L27 146M27 160H34V153M27 160L34 153" stroke="black"/>
<path d="M38 160L52 146M52 146V153V160H45H38V153V146H45H52Z" stroke="black"/>
<path d="M56 153V160H63H70V153V146H63H56V153Z" stroke="black"/>
<path d="M2 160L16 146M9 160H2V153M9 146H2V153M2 146L16 160M16 153V146H9M16 153V160H9M2 153L9 146M2 153L9 160M9 146L16 153M9 160L16 153" stroke="black"/>
<path d="M78 155L80 157H82L84 155M75 157L77 159H85L87 157V149L85 147H77L75 149L75 157ZM78 150V152H80V150H78ZM82 150V152H84V150H82Z" stroke="black"/>
<path d="M96 157L98 155H100L102 157M93 157L95 159H103L105 157V149L103 147H95L93 149L93 157ZM96 150V152H98V150H96ZM100 150V152H102V150H100Z" stroke="black"/>
<path d="M32 122L30 124H25L23 122V121L25 119H30L32 121M32 122V121M32 122V124M32 121V118L30 116H26" stroke="black"/>
<path d="M140 118L138 116H133L131 118V119L133 121H138L140 119M140 118V119M140 118V115M140 119V122L138 124H134" stroke="black"/>
<path d="M41 124V122M41 110V118M41 122L43 124H48L50 122V118L48 116H43L41 118M41 122V118" stroke="black"/>
<path d="M5 134V136M5 142V138M5 136L7 134H12L14 136V138L12 140H7L5 138M5 136V138" stroke="black"/>
<path d="M32 134V136M32 142V138M32 136L30 134H25L23 136V138L25 140H30L32 138M32 136V138" stroke="black"/>
<path d="M86 124V122M86 110V118M86 122L84 124H79L77 122V118L79 116H84L86 118M86 122V118" stroke="black"/>
<path d="M103 123L102 124H97L95 122V120M95 120V118L97 116H102L104 118V120H95Z" stroke="black"/>
<path d="M68 122L66 124H61L59 122V118L61 116H66L68 118" stroke="black"/>
<path d="M282 124L284 122V118L282 116H277L275 118V122L277 124H282Z" stroke="black"/>
<path d="M115 124V113L117 111H120L122 113M113 116H119" stroke="black"/>
<path d="M149 124V118M149 110V118M149 118L151 116H156L158 118V124" stroke="black"/>
<path d="M167 124H172M176 124H172M172 124V118M172 116V118M172 118H169" stroke="black"/>
<path d="M184 121L187 124L190 121V116H187" stroke="black"/>
<path d="M203 124V120M203 110V120M203 120L212 124M203 120L212 116" stroke="black"/>
<path d="M221 110H225V124M221 124H230" stroke="black"/>
<path d="M238 124V118M238 114V118M238 118L240 116H241L243 118M243 118V124M243 118L245 116H246L248 118V124" stroke="black"/>
<path d="M257 124V118M257 114V118M257 118L259 116H264L266 118V124" stroke="black"/>
<path d="M41 142V137M41 134V137M41 137L44 134H48L50 136" stroke="black"/>
<path d="M68 136L66 134H60L58 136L60 138H66L68 140L66 142H60L58 140" stroke="black"/>
<path d="M76 134H86M79 131V140L81 142H84L86 140" stroke="black"/>
<path d="M94 134V140L96 142H100L102 140M102 140V134M102 140L104 142" stroke="black"/>
<path d="M112 134V137L117 142L122 137V134" stroke="black"/>
<path d="M130 134V137L133 142L135 137M135 137V134M135 137L137 142L140 137V134" stroke="black"/>
<path d="M148 134L158 142M158 134L148 142" stroke="black"/>
<path d="M166 134L171 138H176M176 138V134M176 138V140L174 142H168L166 140" stroke="black"/>
<path d="M184 134H194L184 142H194" stroke="black"/>
<path d="M256 135L259 132L263 137L266 134" stroke="black"/>
<path d="M4 189H14M8 193L4 189L8 185" stroke="black"/>
<path d="M32 189H22M28 193L32 189L28 185" stroke="black"/>
<path d="M45 194L45 184M41 190L45 194L49 190" stroke="black"/>
<path d="M63 184L63 194M59 188L63 184L67 188" stroke="black"/>
<path d="M3 205H5M15 205H13M5 205L9 200L13 205M5 205V211L7 214H11L13 211V205M5 205H6M13 205H12M6 205V209L8 210L9 209L10 210L12 209V205M6 205H12M8 206V208M10 206V208" stroke="black"/>
<path d="M26 205V207M28 205V207M26 212V213H22V202L23 201H31L32 202V213H28V212M26 212V209L24 207V204H30V207L28 209V212M26 212H28" stroke="black"/>
<path d="M44 204V206M46 204V206M39 214V206L43 201H47L51 206V214L48 212L45 214L42 212L39 214Z" stroke="black"/>
<path d="M60 204H62M66 204H64M60 207L61 208L63 207L65 208L66 207M63 209V211M58 202V210L63 214L68 210V202L65 201H61L58 202Z" stroke="black"/>
<path d="M78 209L75 211V214M75 211L82 214M78 209L79 210H83L84 209M78 209L77 208V203L79 201H83L85 203V208L84 209M87 214V211L84 209M73 206L76 211M75 206L77 210M80 205V207M82 205V207M79 209V205L80 204H82L83 205V209H79Z" stroke="black"/>
<path d="M98 203H100M105 204L102 201H96L93 204V210L96 213H102L105 210L99 207L105 204Z" stroke="black"/>
<path d="M123 213L121 206H120M120 206V207H114V206M120 206V201H114V206M114 206H113L111 213M116 202V204M118 202C118 202.4 118 203.5 118 204M117 208V213" stroke="black"/>
<path d="M76 189H86" stroke="black"/>
<path d="M99 194V184" stroke="black"/>
<path d="M111 189H113M123 189H121M117 195V193M117 183V185M117 193V185M117 193L120 192L121 189M117 193L114 192L113 189M121 189H113M121 189L120 186L117 185M117 185L114 186L113 189" stroke="black"/>
<path d="M6 231H9M12 231H9M9 228H3C3 228 3 222 3 219H15V228H9ZM9 228V231" stroke="black"/>
<path d="M21 223V219H33V223M21 223H33M21 223V227M33 223V227M33 227V231H21V227M33 227H21M23 225H25M23 229H25M23 221H25" stroke="black"/>
<path d="M133 209H129V205H133V201H137V205H141V209H137V213H133V209Z" stroke="black"/>
<path d="M153 213H151L148 210V208L149 206V204L152 207V203L155 200V204L158 207V210L155 213H153ZM153 213L151 211L153 208L155 211L153 213Z" stroke="black"/>
<path d="M171 213V208M171 206L169 202H165L167 206H171ZM171 206V208M171 208L173 204H177L175 208H171Z" stroke="black"/>
<defs>
<linearGradient id="paint0_linear_932_10" x1="144" y1="0" x2="144" y2="288" gradientUnits="userSpaceOnUse">
<stop stop-color="#FB2727" stop-opacity="0.14"/>
<stop offset="0.125" stop-color="#FB2727" stop-opacity="0.42"/>
<stop offset="0.125" stop-color="#6B4949" stop-opacity="0"/>
<stop offset="0.5" stop-color="#333333" stop-opacity="0"/>
<stop offset="0.5" stop-color="#96B5DB"/>
<stop offset="1" stop-color="#96B5DB" stop-opacity="0.71"/>
</linearGradient>
<pattern id="pattern0_932_10" patternUnits="userSpaceOnUse" patternTransform="matrix(36 0 0 36 0 0)" preserveAspectRatio="none" viewBox="0 0 36 36" width="1" height="1">
<g id="pattern0_932_10_inner">
<g clip-path="url(#clip0_932_10)">
<rect width="36" height="36" fill="white"/>
<rect width="18" height="18" fill="#F6F6F6"/>
<rect x="18" y="18" width="18" height="18" fill="#F6F6F6"/>
</g>
</g>
</pattern><clipPath id="clip0_932_10">
<rect width="36" height="36" fill="white"/>
</clipPath>
</defs>
</svg>
